<svg width="712" height="240" viewBox="0 0 712 240" fill="none" xmlns="http://www.w3.org/2000/svg">
<path d="M112 68L66.0203 172H48L93.9797 68H112Z" fill="#0843FD"/>
<path d="M147.657 155.792H136L162.192 83H174.879L201.072 155.792H189.415L168.838 96.2219H168.269L147.657 155.792ZM149.611 127.286H187.425V136.527H149.611V127.286Z" fill="#121926"/>
<path d="M250.586 101.198L230.791 155.792H219.418L199.588 101.198H210.996L224.82 143.209H225.389L239.178 101.198H250.586Z" fill="#121926"/>
<path d="M274.895 157C271.435 157 268.308 156.36 265.512 155.081C262.717 153.777 260.501 151.894 258.867 149.429C257.255 146.965 256.45 143.944 256.45 140.366C256.45 137.286 257.042 134.75 258.227 132.76C259.411 130.769 261.011 129.194 263.025 128.033C265.038 126.872 267.289 125.995 269.777 125.402C272.265 124.81 274.8 124.36 277.382 124.052C280.652 123.673 283.305 123.365 285.343 123.128C287.38 122.867 288.861 122.452 289.785 121.884C290.709 121.315 291.171 120.391 291.171 119.111V118.863C291.171 115.759 290.295 113.354 288.541 111.647C286.812 109.941 284.229 109.088 280.794 109.088C277.216 109.088 274.397 109.882 272.336 111.47C270.298 113.034 268.888 114.775 268.107 116.695L258.12 114.42C259.305 111.102 261.034 108.425 263.309 106.387C265.607 104.326 268.249 102.833 271.234 101.909C274.219 100.961 277.359 100.487 280.652 100.487C282.832 100.487 285.142 100.748 287.582 101.269C290.046 101.767 292.344 102.691 294.476 104.041C296.632 105.392 298.398 107.323 299.772 109.835C301.146 112.323 301.833 115.557 301.833 119.538V155.792H291.456V148.328H291.029C290.342 149.702 289.311 151.053 287.937 152.379C286.563 153.706 284.798 154.808 282.642 155.685C280.486 156.562 277.903 157 274.895 157ZM277.205 148.47C280.142 148.47 282.654 147.889 284.739 146.728C286.847 145.567 288.447 144.051 289.537 142.179C290.65 140.283 291.207 138.257 291.207 136.101V129.063C290.828 129.443 290.093 129.798 289.003 130.13C287.937 130.438 286.717 130.71 285.343 130.947C283.969 131.16 282.63 131.362 281.327 131.551C280.024 131.717 278.934 131.859 278.057 131.978C275.996 132.239 274.113 132.677 272.407 133.293C270.725 133.909 269.374 134.798 268.355 135.959C267.36 137.096 266.863 138.613 266.863 140.508C266.863 143.138 267.834 145.129 269.777 146.479C271.72 147.806 274.196 148.47 277.205 148.47Z" fill="#121926"/>
<path d="M308.656 92.4544V83H364.985V92.4544H342.276V155.792H331.33V92.4544H308.656Z" fill="#121926"/>
<path d="M370.911 155.792V101.198H381.182V109.87H381.751C382.746 106.932 384.499 104.622 387.011 102.939C389.546 101.233 392.412 100.38 395.611 100.38C396.274 100.38 397.056 100.404 397.957 100.451C398.881 100.499 399.603 100.558 400.124 100.629V110.794C399.698 110.676 398.94 110.546 397.85 110.403C396.76 110.238 395.67 110.155 394.58 110.155C392.069 110.155 389.83 110.688 387.864 111.754C385.921 112.797 384.381 114.254 383.243 116.126C382.106 117.974 381.538 120.083 381.538 122.452V155.792H370.911Z" fill="#121926"/>
<path d="M424.717 157C421.258 157 418.131 156.36 415.335 155.081C412.539 153.777 410.324 151.894 408.689 149.429C407.078 146.965 406.273 143.944 406.273 140.366C406.273 137.286 406.865 134.75 408.05 132.76C409.234 130.769 410.833 129.194 412.847 128.033C414.861 126.872 417.112 125.995 419.6 125.402C422.087 124.81 424.622 124.36 427.205 124.052C430.475 123.673 433.128 123.365 435.166 123.128C437.203 122.867 438.684 122.452 439.608 121.884C440.532 121.315 440.994 120.391 440.994 119.111V118.863C440.994 115.759 440.117 113.354 438.364 111.647C436.635 109.941 434.052 109.088 430.617 109.088C427.039 109.088 424.22 109.882 422.158 111.47C420.121 113.034 418.711 114.775 417.929 116.695L407.943 114.42C409.128 111.102 410.857 108.425 413.132 106.387C415.43 104.326 418.071 102.833 421.057 101.909C424.042 100.961 427.181 100.487 430.475 100.487C432.654 100.487 434.964 100.748 437.405 101.269C439.869 101.767 442.167 102.691 444.299 104.041C446.455 105.392 448.22 107.323 449.594 109.835C450.969 112.323 451.656 115.557 451.656 119.538V155.792H441.278V148.328H440.852C440.165 149.702 439.134 151.053 437.76 152.379C436.386 153.706 434.621 154.808 432.465 155.685C430.309 156.562 427.726 157 424.717 157ZM427.027 148.47C429.965 148.47 432.477 147.889 434.561 146.728C436.67 145.567 438.269 144.051 439.359 142.179C440.473 140.283 441.03 138.257 441.03 136.101V129.063C440.65 129.443 439.916 129.798 438.826 130.13C437.76 130.438 436.54 130.71 435.166 130.947C433.791 131.16 432.453 131.362 431.15 131.551C429.847 131.717 428.757 131.859 427.88 131.978C425.819 132.239 423.935 132.677 422.23 133.293C420.547 133.909 419.197 134.798 418.178 135.959C417.183 137.096 416.685 138.613 416.685 140.508C416.685 143.138 417.657 145.129 419.6 146.479C421.542 147.806 424.018 148.47 427.027 148.47Z" fill="#121926"/>
<path d="M488.803 156.893C483.519 156.893 478.97 155.697 475.156 153.304C471.365 150.887 468.451 147.557 466.413 143.316C464.376 139.075 463.357 134.217 463.357 128.744C463.357 123.199 464.399 118.306 466.484 114.064C468.569 109.799 471.507 106.47 475.298 104.077C479.089 101.684 483.555 100.487 488.696 100.487C492.842 100.487 496.538 101.257 499.784 102.797C503.03 104.314 505.648 106.446 507.638 109.195C509.652 111.944 510.849 115.154 511.228 118.827H500.886C500.317 116.268 499.014 114.064 496.977 112.216C494.963 110.368 492.262 109.444 488.874 109.444C485.912 109.444 483.318 110.226 481.091 111.79C478.887 113.33 477.17 115.533 475.938 118.401C474.706 121.244 474.09 124.609 474.09 128.495C474.09 132.476 474.694 135.911 475.902 138.802C477.11 141.693 478.816 143.932 481.02 145.52C483.247 147.107 485.865 147.901 488.874 147.901C490.888 147.901 492.712 147.534 494.347 146.799C496.005 146.041 497.391 144.963 498.505 143.565C499.642 142.167 500.436 140.484 500.886 138.518H511.228C510.849 142.048 509.699 145.2 507.78 147.972C505.861 150.744 503.291 152.924 500.068 154.512C496.87 156.1 493.115 156.893 488.803 156.893Z" fill="#121926"/>
<path d="M532.364 137.274L532.293 124.301H534.141L555.891 101.198H568.614L543.808 127.5H542.137L532.364 137.274ZM522.591 155.792V83H533.217V155.792H522.591ZM557.064 155.792L537.517 129.845L544.838 122.417L570.106 155.792H557.064Z" fill="#121926"/>
<path d="M599.577 156.893C594.199 156.893 589.567 155.744 585.681 153.446C581.819 151.124 578.834 147.866 576.726 143.671C574.641 139.454 573.598 134.513 573.598 128.85C573.598 123.258 574.641 118.329 576.726 114.064C578.834 109.799 581.772 106.47 585.539 104.077C589.33 101.684 593.761 100.487 598.831 100.487C601.911 100.487 604.896 100.996 607.787 102.015C610.677 103.034 613.271 104.634 615.57 106.814C617.868 108.994 619.68 111.825 621.007 115.308C622.334 118.768 622.997 122.974 622.997 127.926V131.694H579.604V123.732H612.584C612.584 120.936 612.016 118.46 610.878 116.304C609.741 114.124 608.142 112.406 606.081 111.15C604.043 109.894 601.65 109.266 598.902 109.266C595.917 109.266 593.31 110.001 591.083 111.47C588.88 112.915 587.174 114.811 585.966 117.157C584.781 119.479 584.189 122.002 584.189 124.727V130.947C584.189 134.596 584.828 137.7 586.108 140.259C587.411 142.818 589.223 144.773 591.545 146.124C593.867 147.451 596.58 148.114 599.684 148.114C601.698 148.114 603.534 147.83 605.192 147.261C606.851 146.669 608.284 145.792 609.492 144.631C610.701 143.47 611.625 142.037 612.264 140.33L622.322 142.143C621.516 145.105 620.071 147.7 617.986 149.927C615.925 152.131 613.331 153.849 610.203 155.081C607.099 156.289 603.557 156.893 599.577 156.893Z" fill="#121926"/>
<path d="M634.787 155.792V101.198H645.058V109.87H645.626C646.622 106.932 648.375 104.622 650.886 102.939C653.421 101.233 656.288 100.38 659.487 100.38C660.15 100.38 660.932 100.404 661.832 100.451C662.756 100.499 663.479 100.558 664 100.629V110.794C663.574 110.676 662.815 110.546 661.726 110.403C660.636 110.238 659.546 110.155 658.456 110.155C655.945 110.155 653.706 110.688 651.739 111.754C649.796 112.797 648.256 114.254 647.119 116.126C645.982 117.974 645.413 120.083 645.413 122.452V155.792H634.787Z" fill="#121926"/>
</svg>
