<svg width="580" height="240" viewBox="0 0 580 240" fill="none" xmlns="http://www.w3.org/2000/svg">
<path d="M112 68L66.0203 172H48L93.9797 68H112Z" fill="#0843FD"/>
<path d="M143.828 160.792H132L158.577 88H171.451L198.028 160.792H186.2L165.321 101.222H164.744L143.828 160.792ZM145.811 132.286H184.181V141.527H145.811V132.286Z" fill="#121926"/>
<path d="M248.27 106.198L228.184 160.792H216.645L196.523 106.198H208.098L222.126 148.209H222.703L236.695 106.198H248.27Z" fill="#121926"/>
<path d="M272.936 162C269.426 162 266.253 161.36 263.416 160.081C260.579 158.777 258.331 156.894 256.673 154.429C255.038 151.965 254.22 148.944 254.22 145.366C254.22 142.286 254.821 139.75 256.024 137.76C257.226 135.769 258.848 134.194 260.892 133.033C262.935 131.872 265.219 130.995 267.743 130.402C270.268 129.81 272.84 129.36 275.461 129.052C278.778 128.673 281.471 128.365 283.538 128.128C285.606 127.867 287.108 127.452 288.046 126.884C288.983 126.315 289.452 125.391 289.452 124.111V123.863C289.452 120.759 288.563 118.354 286.784 116.647C285.029 114.941 282.408 114.088 278.922 114.088C275.292 114.088 272.431 114.882 270.34 116.47C268.272 118.034 266.842 119.775 266.049 121.695L255.915 119.42C257.117 116.102 258.872 113.425 261.18 111.387C263.512 109.326 266.193 107.833 269.222 106.909C272.251 105.961 275.436 105.487 278.778 105.487C280.99 105.487 283.334 105.748 285.81 106.269C288.31 106.767 290.642 107.691 292.806 109.041C294.994 110.392 296.785 112.323 298.179 114.835C299.573 117.323 300.271 120.557 300.271 124.538V160.792H289.741V153.328H289.308C288.611 154.702 287.565 156.053 286.171 157.379C284.776 158.706 282.985 159.808 280.798 160.685C278.61 161.562 275.989 162 272.936 162ZM275.28 153.47C278.261 153.47 280.81 152.889 282.925 151.728C285.065 150.567 286.688 149.051 287.793 147.179C288.923 145.283 289.488 143.257 289.488 141.101V134.063C289.104 134.443 288.358 134.798 287.253 135.13C286.171 135.438 284.933 135.71 283.538 135.947C282.144 136.16 280.786 136.362 279.463 136.551C278.141 136.717 277.035 136.859 276.146 136.978C274.054 137.239 272.143 137.677 270.412 138.293C268.705 138.909 267.335 139.798 266.301 140.959C265.291 142.096 264.786 143.613 264.786 145.508C264.786 148.138 265.772 150.129 267.743 151.479C269.715 152.806 272.227 153.47 275.28 153.47Z" fill="#121926"/>
<path d="M307.194 97.4544V88H364.351V97.4544H341.308V160.792H330.201V97.4544H307.194Z" fill="#121926"/>
<path d="M391.956 161.893C386.499 161.893 381.799 160.744 377.856 158.446C373.938 156.124 370.909 152.866 368.769 148.671C366.653 144.454 365.596 139.513 365.596 133.85C365.596 128.258 366.653 123.329 368.769 119.064C370.909 114.799 373.89 111.47 377.712 109.077C381.559 106.684 386.054 105.487 391.199 105.487C394.324 105.487 397.353 105.996 400.286 107.015C403.219 108.034 405.852 109.634 408.184 111.814C410.516 113.994 412.355 116.825 413.701 120.308C415.047 123.768 415.721 127.974 415.721 132.926V136.694H371.69V128.732H405.155C405.155 125.936 404.578 123.46 403.424 121.304C402.27 119.124 400.647 117.406 398.555 116.15C396.488 114.894 394.06 114.266 391.271 114.266C388.242 114.266 385.597 115.001 383.338 116.47C381.102 117.915 379.371 119.811 378.145 122.157C376.943 124.479 376.342 127.002 376.342 129.727V135.947C376.342 139.596 376.991 142.7 378.289 145.259C379.611 147.818 381.45 149.773 383.806 151.124C386.162 152.451 388.915 153.114 392.064 153.114C394.108 153.114 395.971 152.83 397.654 152.261C399.337 151.669 400.791 150.792 402.017 149.631C403.243 148.47 404.181 147.037 404.83 145.33L415.035 147.143C414.218 150.105 412.752 152.7 410.636 154.927C408.544 157.131 405.912 158.849 402.739 160.081C399.589 161.289 395.995 161.893 391.956 161.893Z" fill="#121926"/>
<path d="M451.016 161.893C445.654 161.893 441.039 160.697 437.168 158.304C433.322 155.887 430.364 152.557 428.297 148.316C426.229 144.075 425.196 139.217 425.196 133.744C425.196 128.199 426.254 123.306 428.369 119.064C430.485 114.799 433.466 111.47 437.312 109.077C441.159 106.684 445.691 105.487 450.907 105.487C455.115 105.487 458.865 106.257 462.158 107.797C465.452 109.314 468.109 111.446 470.128 114.195C472.171 116.944 473.386 120.154 473.77 123.827H463.276C462.699 121.268 461.377 119.064 459.31 117.216C457.266 115.368 454.525 114.444 451.088 114.444C448.083 114.444 445.45 115.226 443.19 116.79C440.954 118.33 439.212 120.533 437.961 123.401C436.711 126.244 436.086 129.609 436.086 133.495C436.086 137.476 436.699 140.911 437.925 143.802C439.151 146.693 440.882 148.932 443.118 150.52C445.378 152.107 448.034 152.901 451.088 152.901C453.131 152.901 454.982 152.534 456.641 151.799C458.324 151.041 459.73 149.963 460.86 148.565C462.014 147.167 462.82 145.484 463.276 143.518H473.77C473.386 147.048 472.22 150.2 470.272 152.972C468.325 155.744 465.717 157.924 462.447 159.512C459.201 161.1 455.391 161.893 451.016 161.893Z" fill="#121926"/>
<path d="M496.083 128.377V160.792H485.301V88H495.939V115.084H496.624C497.922 112.145 499.906 109.811 502.574 108.082C505.243 106.352 508.729 105.487 513.032 105.487C516.83 105.487 520.148 106.257 522.985 107.797C525.846 109.337 528.057 111.636 529.62 114.693C531.207 117.726 532 121.517 532 126.066V160.792H521.218V127.346C521.218 123.341 520.172 120.237 518.08 118.034C515.989 115.806 513.08 114.693 509.354 114.693C506.805 114.693 504.521 115.226 502.502 116.292C500.507 117.358 498.932 118.922 497.778 120.984C496.648 123.021 496.083 125.486 496.083 128.377Z" fill="#121926"/>
</svg>
